<svg width="119" height="117" viewBox="0 0 119 117" fill="none" xmlns="http://www.w3.org/2000/svg">
<path d="M68.5874 80.5841C68.9774 83.9322 69.3821 86.5812 69.5881 89.245C70.3681 99.304 65.9898 107.038 58.4474 113.197C54.6652 116.287 50.2354 116.876 45.5923 115.61C35.1801 112.777 27.0195 102.336 26.6737 91.4452C26.578 88.5386 26.659 85.632 26.659 82.409C20.3896 84.0646 14.6353 83.5716 8.9914 81.4083C-0.214 77.8909 -3.04702 67.7657 3.77425 60.6648C7.04876 57.2579 11.5963 54.9915 15.7832 52.5705C17.8509 51.3711 20.3896 50.9958 23.1638 50.0981C21.0151 48.2291 19.0062 46.7427 17.3285 44.9546C14.9076 42.3718 12.494 39.7301 10.4925 36.8308C3.04577 26.0507 12.0378 14.2257 22.3764 13.3059C31.4788 12.4965 39.0948 14.7629 44.9153 22.0698C45.5187 22.8277 46.2472 23.49 46.5194 23.7696C50.6769 18.5378 54.5769 13.0999 59.0582 8.19919C61.3908 5.64581 64.5844 3.70318 67.697 2.07697C74.6581 -1.56546 81.3322 -0.211509 87.241 4.53468C92.8923 9.0822 94.7172 15.2191 92.2815 22.011C90.361 27.3606 87.5795 32.3937 85.0776 37.8022C93.4441 40.1863 101.465 44.778 108.441 50.9958C111.494 53.7185 114.261 56.993 116.41 60.4735C120.273 66.7355 119.581 73.0049 114.578 78.406C102.789 91.1214 88.4036 92.6446 72.0237 82.8284C71.0598 82.2913 70.1841 81.6511 68.5874 80.5841ZM67.513 66.5663C73.3703 80.9373 94.9085 88.4135 107.837 75.5657C112.296 71.1285 113.231 67.6112 109.618 62.5927C102.929 53.299 93.5472 47.6183 82.642 44.6087C78.536 43.4755 73.4587 47.9421 73.2453 52.1511C72.9583 57.6405 72.1341 62.9312 67.513 66.5663ZM48.6754 68.5825C45.7321 70.8342 43.4804 72.9313 40.8902 74.4619C34.562 78.2 32.8401 83.7556 33.3993 90.7093C34.0542 98.8772 39.0285 105.897 46.5783 108.62C49.4554 109.657 52.1413 109.481 54.518 107.464C60.7654 102.188 63.9221 95.6395 62.5314 87.3245C61.9059 83.579 61.4055 79.7968 60.4342 76.1396C60.0295 74.6311 58.808 72.8872 57.4614 72.1661C54.5107 70.5914 51.2435 69.598 48.6754 68.5825ZM86.277 17.8019C86.4978 9.75917 77.366 4.7628 70.3681 8.4273C63.3114 12.1286 58.3812 17.9712 54.805 24.9764C52.9581 28.5894 54.3267 31.4445 58.234 32.9162C60.3974 33.733 62.7668 34.4394 64.4887 35.8596C67.984 38.7588 71.4057 37.9935 74.6287 36.0361C81.7148 31.7462 84.798 24.8145 86.277 17.8019ZM26.1218 19.8255C24.0909 20.1934 21.9717 20.3038 20.0437 20.9808C15.6508 22.5334 13.2225 27.4488 15.0842 31.312C18.756 38.9354 24.7385 44.1893 32.6856 47.0002C33.6422 47.3387 35.5774 46.36 36.3721 45.4182C38.5649 42.8059 40.6326 40.0171 42.2589 37.0295C43.1272 35.4328 43.7379 33.0339 43.186 31.4445C41.0153 25.2413 32.8916 20.0831 26.1218 19.8255ZM66.4387 51.3932C66.4093 45.2048 60.4931 39.3254 54.3561 39.3916C49.3818 39.4431 41.2949 47.3166 41.1404 52.2541C40.9712 57.6258 49.8381 63.7922 57.5056 63.6229C62.6418 63.5125 66.4608 58.2807 66.4387 51.3932ZM19.6538 77.0594C22.8768 75.9336 27.0048 75.0358 30.5369 73.0711C33.1418 71.6215 35.4891 69.0755 37.005 66.4633C39.3965 62.3426 35.9821 58.8105 34.275 55.4256C33.9291 54.7486 29.8746 55.7347 27.6082 56.2718C24.4147 57.0371 21.1475 57.795 18.1747 59.1343C15.121 60.5177 12.0378 62.2175 9.5948 64.4544C5.20182 68.4868 6.40121 73.1815 12.001 75.0947C14.1938 75.8453 16.4823 76.2574 19.6538 77.0594Z" fill="#909C7D"/>
<path d="M67.5137 66.5662C72.1348 62.9312 72.9589 57.6405 73.2386 52.1437C73.452 47.9347 78.5219 43.4681 82.6352 44.6013C93.5405 47.6109 102.922 53.299 109.611 62.5853C113.224 67.6038 112.297 71.1211 107.831 75.5582C94.9092 88.4134 73.371 80.9373 67.5137 66.5662Z" fill="#BE84C5"/>
<path d="M48.6745 68.5825C51.2499 69.598 54.5097 70.5914 57.4604 72.1734C58.807 72.8945 60.0285 74.6312 60.4332 76.147C61.4119 79.8041 61.9049 83.5864 62.5304 87.3318C63.9138 95.6468 60.757 102.196 54.5171 107.472C52.1329 109.488 49.4544 109.665 46.5773 108.627C39.0202 105.904 34.0532 98.8845 33.3983 90.7167C32.8391 83.763 34.561 78.2074 40.8892 74.4693C43.472 72.9314 45.7311 70.8268 48.6745 68.5825Z" fill="#BE84C5"/>
<path d="M86.2771 17.8019C84.7981 24.8145 81.7076 31.7461 74.6287 36.0508C71.4058 38.0082 67.9841 38.7661 64.4888 35.8742C62.7669 34.4467 60.3902 33.7403 58.2341 32.9309C54.3268 31.4518 52.9582 28.6041 54.8051 24.9911C58.3813 17.9785 63.3114 12.1433 70.3682 8.44198C77.3661 4.7554 86.4979 9.75914 86.2771 17.8019Z" fill="#BE84C5"/>
<path d="M26.1216 19.8256C32.8913 20.0757 41.0151 25.2414 43.1932 31.4445C43.7524 33.034 43.1416 35.4328 42.266 37.0296C40.6324 40.0171 38.5721 42.806 36.3792 45.4182C35.5845 46.3674 33.6493 47.3387 32.6927 47.0003C24.7455 44.182 18.7558 38.9281 15.0913 31.3121C13.2296 27.4489 15.6579 22.5335 20.0509 20.9808C21.9641 20.3039 24.0907 20.1935 26.1216 19.8256Z" fill="#BE84C5"/>
<path d="M66.4394 51.3932C66.4688 58.2733 62.6424 63.5051 57.4989 63.6229C49.8388 63.7921 40.9645 57.6258 41.1337 52.2541C41.2956 47.3166 49.3825 39.4431 54.3495 39.3915C60.4864 39.3253 66.41 45.2121 66.4394 51.3932Z" fill="#DB945F"/>
<path d="M19.6543 77.0594C16.4828 76.2574 14.187 75.8453 12.0089 75.1021C6.40911 73.1889 5.20967 68.4942 9.60266 64.4618C12.0457 62.2175 15.1289 60.5177 18.1826 59.1417C21.1554 57.7951 24.4226 57.0445 27.6161 56.2792C29.8825 55.7347 33.937 54.7487 34.2829 55.433C35.99 58.8179 39.4043 62.3499 37.0128 66.4706C35.497 69.0829 33.1423 71.6289 30.5448 73.0785C27.0127 75.0359 22.8773 75.9336 19.6543 77.0594Z" fill="#BE84C5"/>
</svg>
