<svg width="150" height="148" viewBox="0 0 150 148" fill="none" xmlns="http://www.w3.org/2000/svg">
<g opacity="0.8">
<path d="M34.6299 72.9739C31.9514 69.7309 29.0299 66.7446 26.7753 63.3137C23.7874 58.7707 23.4874 53.5149 25.0958 48.4484C27.1072 42.1285 34.1655 38.6017 41.9153 39.5188C43.2439 39.6746 44.5624 39.9486 46.4246 40.2483C44.5799 33.9103 47.5025 28.8911 50.1876 23.8211C52.8814 18.7455 57.4977 16.2248 62.8945 15.5109C69.7096 14.6033 74.0893 17.8784 76.0051 24.5175C76.2715 25.4547 76.5611 26.3894 76.947 27.6832C84.2064 20.9939 93.3961 19.6076 102.291 17.6618C104.92 17.0867 107.913 17.5152 110.609 18.1057C114.92 19.0563 117.275 22.8998 116.588 27.2826C115.379 35.0229 111.916 41.6198 106.492 47.2937C101.355 52.6754 96.4375 58.262 90.7293 64.5224C93.8274 64.6722 95.7399 64.772 97.641 64.8543C110.398 65.4033 120.87 70.2727 128.302 80.9636C129.281 82.369 130.427 83.6596 131.441 85.0424C135.321 90.3402 135.839 96.0563 133.494 102.109C131.65 106.87 127.794 108.612 123.072 108.876C113.505 109.422 104.712 106.378 96.0241 102.913C95.4756 102.698 94.9435 102.442 95.219 102.561C96.4236 108.514 98.261 114.745 98.7663 121.083C99.0844 125.056 97.847 129.336 96.5152 133.213C94.9445 137.821 91.9915 139.282 87.0551 139.109C72.9163 138.618 57.9523 123.949 56.2989 108.961C56.0816 107.019 55.9105 105.071 55.7323 103.227C50.1241 105.002 44.7032 107.238 39.0657 108.374C30.6831 110.069 22.174 109.501 14.0558 106.714C6.89741 104.261 4.18812 98.3776 6.41573 91.1859C9.0981 82.5339 14.7019 76.8681 23.6825 74.9104C27.3627 74.1311 31.1032 73.5979 34.6299 72.9739ZM104.11 71.9464C98.87 71.9262 93.6252 71.8222 88.3862 71.9377C87.2602 71.9607 85.1624 72.7995 85.1715 73.2152C85.2918 77.304 81.0168 80.5522 82.9925 84.9017C83.0373 85.0091 83.1576 85.0799 83.2446 85.1662C93.498 95.2557 105.648 101.221 120.123 102.039C126.897 102.416 130.292 97.6485 127.037 91.5737C122.048 82.2393 115.124 74.8094 104.11 71.9464ZM62.7711 93.6241C62.9103 98.2586 62.7097 103.498 63.2897 108.64C64.4958 119.274 75.0005 130.019 85.4293 132.027C88.6094 132.638 90.5796 131.622 90.9894 128.504C91.456 124.909 91.9902 121.209 91.6062 117.65C90.3739 106.259 83.1442 97.936 77.0525 89.7809C72.3993 91.0297 68.2152 92.1604 62.7711 93.6241ZM20.6863 101.561C30.8849 103.061 40.8206 102.692 49.9708 97.4374C52.0807 96.225 53.682 94.0462 55.3159 92.1378C56.6304 90.5975 56.3683 89.3227 54.5377 87.9236C52.0339 86.0121 49.985 83.5205 47.6547 81.3602C46.9331 80.687 45.8938 79.8104 45.0747 79.8763C38.2613 80.4232 31.4176 80.8657 24.6812 81.9331C18.5204 82.9127 14.9826 87.289 13.0628 93.0039C11.8603 96.592 12.9537 98.872 16.4767 100.309C17.8262 100.86 19.2758 101.155 20.6863 101.561ZM83.5073 62.2959C83.9234 61.9332 84.6312 61.4373 85.1935 60.8124C91.3016 53.9827 97.5897 47.2968 103.391 40.2135C105.813 37.2544 107.532 33.5734 108.94 29.9763C110.819 25.1932 109.344 23.3961 104.313 24.3686C99.0481 25.3815 93.7848 26.7032 88.7743 28.5679C85.9305 29.6236 82.8 31.5286 81.1881 33.9685C77.5357 39.5166 74.7404 45.6315 71.9583 50.8387C76.1803 55.0282 79.7014 58.5187 83.5073 62.2959ZM78.2509 75.3569C77.8117 72.1631 77.7644 69.4593 77.0363 66.9488C75.1988 60.6123 66.8004 56.2836 62.394 59.7596C57.9424 63.2711 54.4236 67.5235 54.4183 74.1738C54.4142 80.2902 58.2781 82.4921 62.398 84.7636C66.2156 86.8653 69.9802 85.5848 72.8376 82.8089C75.0444 80.6842 76.5147 77.8153 78.2509 75.3569ZM46.5987 71.3983C48.8173 67.1392 51.0112 62.9952 53.1034 58.7994C53.4354 58.1254 53.5102 57.1406 53.3133 56.4064C51.3332 49.0463 42.7305 44.4407 35.505 46.9537C32.6359 47.9513 31.1362 49.9712 30.9157 53.295C30.4147 60.8929 37.4981 68.1386 46.5987 71.3983ZM59.2734 52.314C62.8838 52.355 64.7619 51.206 65.5424 48.2199C66.6508 43.9796 68.3046 39.8633 69.1509 35.5821C69.7269 32.6728 69.7029 29.5074 69.2721 26.5562C68.7586 23.0757 66.5919 21.8758 63.2266 22.4139C57.7513 23.284 51.5008 32.1901 53.1874 37.471C54.8467 42.6333 57.2886 47.5488 59.2734 52.314Z" fill="#909C7D"/>
<path d="M104.11 71.9465C115.117 74.808 122.041 82.2379 127.039 91.5667C130.294 97.6415 126.897 102.416 120.125 102.032C105.648 101.221 93.491 95.2544 83.2463 85.1592C83.1594 85.0729 83.0391 85.002 82.9943 84.8947C81.0272 80.5395 85.2951 77.2898 85.1732 73.2082C85.1642 72.7924 87.2548 71.9521 88.388 71.9307C93.6254 71.8224 98.8702 71.9264 104.11 71.9465Z" fill="#BE84C5"/>
<path d="M62.7709 93.6241C68.215 92.1604 72.3976 91.0369 77.0523 89.7809C83.144 97.9361 90.3737 106.259 91.606 117.65C91.99 121.209 91.4542 124.917 90.9892 128.504C90.5882 131.616 88.6164 132.64 85.4291 132.027C75.0003 130.019 64.4956 119.274 63.2895 108.64C62.7111 103.491 62.9101 98.2587 62.7709 93.6241Z" fill="#BE84C5"/>
<path d="M20.6854 101.561C19.2749 101.155 17.8254 100.86 16.4759 100.309C12.9456 98.8704 11.8538 96.5832 13.0619 93.0037C14.9802 87.2961 18.5108 82.9183 24.6803 81.933C31.4182 80.8584 38.262 80.4159 45.0738 79.8762C45.9002 79.8119 46.9323 80.6868 47.6538 81.3601C49.9857 83.5132 52.0345 86.0048 54.5368 87.9235C56.3675 89.3225 56.6295 90.5974 55.315 92.1377C53.6883 94.0476 52.0798 96.2249 49.97 97.4373C40.8182 102.699 30.8841 103.061 20.6854 101.561Z" fill="#BE84C5"/>
<path d="M83.5081 62.296C79.6949 58.5174 76.1754 55.0196 71.9534 50.8302C74.7355 45.6229 77.5308 39.508 81.1832 33.9599C82.7879 31.5185 85.9241 29.6223 88.7695 28.5594C93.78 26.6947 99.0504 25.3745 104.308 24.3601C109.339 23.3875 110.812 25.1919 108.935 29.9677C107.52 33.5633 105.801 37.2444 103.386 40.2049C97.5848 47.2882 91.2967 53.9742 85.1886 60.8039C84.632 61.4374 83.9241 61.9334 83.5081 62.296Z" fill="#BE84C5"/>
<path d="M78.251 75.357C76.5148 77.8154 75.0445 80.6843 72.8449 82.8105C69.9787 85.5921 66.2213 86.8741 62.4053 84.7652C58.2782 82.4921 54.4158 80.2831 54.4256 74.1755C54.4309 67.5251 57.9497 63.2727 62.4013 59.7612C66.8077 56.2852 75.2077 60.6067 77.0436 66.9504C77.7645 69.4594 77.8174 72.1719 78.251 75.357Z" fill="#DB945F"/>
<path d="M46.5988 71.3984C37.4981 68.1387 30.4147 60.893 30.9142 53.3023C31.1347 49.9785 32.6344 47.9586 35.5034 46.961C42.729 44.448 51.3317 49.0536 53.3118 56.4137C53.5087 57.1479 53.4339 58.1327 53.1019 58.8067C51.0184 62.9969 48.8173 67.1393 46.5988 71.3984Z" fill="#BE84C5"/>
<path d="M59.2732 52.314C57.2869 47.5559 54.8451 42.6404 53.1889 37.4638C51.5022 32.1828 57.7455 23.2752 63.228 22.4066C66.6005 21.8701 68.7672 23.07 69.2735 26.549C69.7043 29.5002 69.7298 32.6583 69.1523 35.5748C68.306 39.856 66.6522 43.9724 65.5438 48.2127C64.7633 51.1987 62.8837 52.355 59.2732 52.314Z" fill="#BE84C5"/>
</g>
</svg>
